ply
format ascii 1.0
comment PCL generated
element vertex 511
property float x
property float y
property float z
element camera 1
property float view_px
property float view_py
property float view_pz
property float x_axisx
property float x_axisy
property float x_axisz
property float y_axisx
property float y_axisy
property float y_axisz
property float z_axisx
property float z_axisy
property float z_axisz
property float focal
property float scalex
property float scaley
property float centerx
property float centery
property int viewportx
property int viewporty
property float k1
property float k2
end_header
0.069085866 -0.088666752 0.13161692
0.069740646 -0.088588044 0.13155422
0.070369706 -0.088588044 0.13155422
0.070972323 -0.088666752 0.13161692
0.071601145 -0.088666752 0.13161692
0.067777701 -0.089268491 0.13129804
0.068406053 -0.089268491 0.13129804
0.069060132 -0.089189947 0.13123517
0.069688715 -0.089189947 0.13123517
0.070317306 -0.089189947 0.13123517
0.070945889 -0.089189947 0.13123517
0.071547814 -0.089268491 0.13129804
0.072149262 -0.089347035 0.13136092
0.072750241 -0.089425579 0.1314238
0.067099288 -0.089869559 0.13097982
0.067727178 -0.089869559 0.13097982
0.068380557 -0.089791179 0.13091677
0.069008671 -0.089791179 0.13091677
0.069662757 -0.089712799 0.13085373
0.070291109 -0.089712799 0.13085373
0.070919462 -0.089712799 0.13085373
0.071521141 -0.089791179 0.13091677
0.072122365 -0.089869559 0.13097982
0.072723113 -0.089947909 0.13104284
0.073350765 -0.089947909 0.13104284
0.067049235 -0.090469956 0.13066225
0.067701921 -0.090391725 0.13059902
0.068355061 -0.090313539 0.13053584
0.068982944 -0.090313539 0.13053584
0.069636784 -0.090235338 0.13047263
0.070264906 -0.090235338 0.13047263
0.070866592 -0.090313539 0.13053584
0.071494475 -0.090313539 0.13053584
0.072095469 -0.090391725 0.13059902
0.072723113 -0.090391725 0.13059902
0.073296025 -0.090548158 0.13072546
0.073923208 -0.090548158 0.13072546
0.066347443 -0.091147751 0.13040872
0.067024209 -0.090991646 0.13028197
0.067676648 -0.090913609 0.1302186
0.068329573 -0.090835541 0.13015521
0.068931475 -0.090913609 0.1302186
0.069584869 -0.090835541 0.13015521
0.070186317 -0.090913609 0.1302186
0.070840165 -0.090835541 0.13015521
0.071467817 -0.090835541 0.13015521
0.072041661 -0.090991646 0.13028197
0.072668836 -0.090991646 0.13028197
0.073296025 -0.090991646 0.13028197
0.073895596 -0.091069698 0.13034534
0.074494705 -0.091147751 0.13040872
0.066322647 -0.091668785 0.13002911
0.066999175 -0.091513023 0.12990203
0.067626126 -0.091513023 0.12990203
0.068278573 -0.091435134 0.12983848
0.068905748 -0.091435134 0.12983848
0.069558896 -0.091357261 0.12977494
0.070186317 -0.091357261 0.12977494
0.070813723 -0.091357261 0.12977494
0.071441144 -0.091357261 0.12977494
0.072041661 -0.091435134 0.12983848
0.072641701 -0.091513023 0.12990203
0.073268652 -0.091513023 0.12990203
0.073895596 -0.091513023 0.12990203
0.074494705 -0.091590896 0.12996557
0.066322647 -0.092111781 0.12958613
0.066974156 -0.092034042 0.12952241
0.067600869 -0.092034042 0.12952241
0.068227582 -0.092034042 0.12952241
0.068905748 -0.091878608 0.12939501
0.069558896 -0.091800898 0.12933129
0.070160121 -0.091878608 0.12939501
0.070787296 -0.091878608 0.12939501
0.071414478 -0.091878608 0.12939501
0.072014757 -0.091956347 0.12945871
0.072641701 -0.091956347 0.12945871
0.073268652 -0.091956347 0.12945871
0.073895596 -0.091956347 0.12945871
0.074494705 -0.092034042 0.12952241
0.066322647 -0.092554763 0.12914315
0.066949122 -0.092554763 0.12914315
0.067575604 -0.092554763 0.12914315
0.068227582 -0.092477202 0.12907927
0.068880014 -0.092399657 0.1290154
0.069506966 -0.092399657 0.1290154
0.070186317 -0.092244551 0.12888765
0.070813723 -0.092244551 0.12888765
0.071414478 -0.092322096 0.12895152
0.072041661 -0.092322096 0.12895152
0.072668836 -0.092322096 0.12895152
0.073268652 -0.092399657 0.1290154
0.073867999 -0.092477202 0.12907927
0.074494705 -0.092477202 0.12907927
0.066924095 -0.093075126 0.1287642
0.067600869 -0.092920363 0.12863611
0.068227582 -0.092920363 0.12863611
0.068880014 -0.092842981 0.12857208
0.069506966 -0.092842981 0.12857208
0.070160121 -0.092765585 0.12850803
0.070813723 -0.092688203 0.128444
0.071414478 -0.092765585 0.12850803
0.072041661 -0.092765585 0.12850803
0.072641701 -0.092842981 0.12857208
0.073268652 -0.092842981 0.12857208
0.073895596 -0.092842981 0.12857208
0.07452254 -0.092842981 0.12857208
0.067600869 -0.093363509 0.12819296
0.068253078 -0.093286291 0.12812877
0.068880014 -0.093286291 0.12812877
0.069532938 -0.093209058 0.12806454
0.070186317 -0.093131855 0.12800035
0.070840165 -0.093054622 0.12793614
0.071467817 -0.093054622 0.12793614
0.072095469 -0.093054622 0.12793614
0.072668836 -0.093209058 0.12806454
0.073296025 -0.093209058 0.12806454
0.073867999 -0.093363509 0.12819296
0.067600869 -0.093806654 0.1277498
0.068278573 -0.093652546 0.12762107
0.068931475 -0.093575507 0.1275567
0.069584869 -0.093498439 0.12749232
0.070238717 -0.0934214 0.12742797
0.070866592 -0.0934214 0.12742797
0.071494475 -0.0934214 0.12742797
0.072095469 -0.093498439 0.12749232
0.072668836 -0.093652546 0.12762107
0.073296025 -0.093652546 0.12762107
0.068329573 -0.093942255 0.12704851
0.069085866 -0.093557835 0.12672584
0.069792576 -0.09332718 0.12653224
0.070422105 -0.09332718 0.12653224
0.071078055 -0.093250275 0.12646769
0.071627811 -0.093480945 0.12666132
0.072203062 -0.093634725 0.12679039
0.072777376 -0.093788505 0.12691946
0.073378131 -0.093865395 0.126984
0.069368899 -0.093158528 0.12556949
0.070000298 -0.093158528 0.12556949
0.070605494 -0.093235269 0.12563421
0.071236648 -0.093235269 0.12563421
0.071841151 -0.093311965 0.12569889
0.070972271 -0.092609778 0.1242798
0.071474545 -0.092992559 0.12460414
0.07019078 -0.090609014 0.120058
0.070835523 -0.090609014 0.120058
0.072098814 -0.090685084 0.12012337
0.072769761 -0.090609014 0.120058
0.069697611 -0.090609565 0.11920892
0.070343763 -0.090609565 0.11920892
0.070964172 -0.090685472 0.11927447
0.071636058 -0.090609565 0.11920892
0.072308414 -0.090533674 0.11914341
0.072875492 -0.090761334 0.11933997
0.073601179 -0.090533674 0.11914341
0.069176592 -0.090687811 0.11842357
0.069823913 -0.090687811 0.11842357
0.070445739 -0.090763554 0.11848927
0.071092822 -0.090763554 0.11848927
0.071739912 -0.090763554 0.11848927
0.072387002 -0.090763554 0.11848927
0.073007658 -0.090839282 0.11855495
0.073681176 -0.090763554 0.11848927
0.07435517 -0.090687811 0.11842357
0.069351785 -0.090616614 0.11750482
0.06997548 -0.090692177 0.1175707
0.07062421 -0.090692177 0.1175707
0.071272932 -0.090692177 0.1175707
0.071921661 -0.090692177 0.1175707
0.072570391 -0.090692177 0.1175707
0.073192686 -0.090767741 0.11763655
0.073894516 -0.090616614 0.11750482
0.069501951 -0.090623111 0.11664979
0.07015232 -0.090623111 0.11664979
0.070777193 -0.09069851 0.11671583
0.071427315 -0.09069851 0.11671583
0.072077453 -0.09069851 0.11671583
0.072727591 -0.09069851 0.11671583
0.073351286 -0.09077391 0.11678185
0.074001186 -0.09077391 0.11678185
0.069025144 -0.090556368 0.11572659
0.069677144 -0.090556368 0.11572659
0.07027863 -0.09070684 0.11585897
0.070904672 -0.090782076 0.11592516
0.071555965 -0.090782076 0.11592516
0.072181314 -0.090857297 0.11599134
0.07280618 -0.090932548 0.11605754
0.073430583 -0.091007754 0.11612374
0.074107848 -0.090932548 0.11605754
0.074758686 -0.090932548 0.11605754
0.069223486 -0.090416893 0.11473471
0.069827311 -0.090567023 0.11486742
0.070455462 -0.090642095 0.11493376
0.071083143 -0.090717167 0.11500014
0.071684629 -0.090867266 0.11513284
0.072311133 -0.090942353 0.11519919
0.072937183 -0.09101741 0.11526555
0.073536314 -0.091167539 0.11539826
0.074161187 -0.091242626 0.11546463
0.074812494 -0.091242626 0.11546463
0.069421835 -0.090280041 0.11374018
0.070002504 -0.090504766 0.11393975
0.070632294 -0.090579659 0.11400625
0.071261622 -0.090654537 0.11407277
0.071839005 -0.090879261 0.11427234
0.072440952 -0.091029063 0.11440539
0.073068172 -0.091103956 0.1144719
0.073694907 -0.091178864 0.11453845
0.074321188 -0.091253743 0.11460495
0.069036238 -0.089921653 0.11254291
0.069545805 -0.090370074 0.11294305
0.070177697 -0.090444818 0.11300975
0.070809126 -0.090519547 0.11307642
0.07141459 -0.090669006 0.1132098
0.071967654 -0.090967953 0.11347656
0.072570786 -0.091117397 0.11360991
0.073199168 -0.091192141 0.11367661
0.07382708 -0.09126687 0.11374329
0.074481197 -0.09126687 0.11374329
0.069208153 -0.089865178 0.11160944
0.069744147 -0.09023805 0.11194372
0.070327863 -0.090461731 0.11214426
0.070935436 -0.090610877 0.11227798
0.071542069 -0.090760022 0.11241169
0.072122037 -0.090983734 0.11261223
0.072700605 -0.09120743 0.11281279
0.07330396 -0.091356561 0.11294651
0.073932804 -0.091431141 0.11301337
0.06869413 -0.089885443 0.11074068
0.069281831 -0.090108648 0.11094174
0.069868118 -0.090331852 0.11114277
0.070427977 -0.090629473 0.11141086
0.071061745 -0.09070389 0.11147788
0.071669556 -0.090852663 0.1116119
0.072250687 -0.091075897 0.11181296
0.072830424 -0.091299102 0.11201403
0.073434956 -0.09144792 0.11214805
0.074091405 -0.09144792 0.11214805
0.068840086 -0.089907676 0.10986991
0.069429189 -0.090130374 0.11007145
0.070016876 -0.090353101 0.11027302
0.07060317 -0.090575814 0.11047457
0.07121332 -0.090724304 0.11060894
0.071822532 -0.090872765 0.1107433
0.072379336 -0.09116973 0.11101204
0.072986215 -0.091318175 0.11114639
0.073618345 -0.091392428 0.11121358
0.074276432 -0.091392428 0.11121358
0.068394125 -0.089709684 0.10879511
0.06896171 -0.090005979 0.10906452
0.069601104 -0.090080038 0.10913184
0.07019043 -0.090302259 0.1093339
0.070778362 -0.09052448 0.10953596
0.071364895 -0.090746686 0.10973799
0.072001003 -0.09082076 0.10980535
0.072559454 -0.091117054 0.11007473
0.07319393 -0.091191128 0.11014211
0.073827937 -0.091265187 0.11020944
0.074487902 -0.091265187 0.11020944
0.068562753 -0.089662492 0.10785235
0.069156311 -0.089884207 0.10805489
0.069773018 -0.090032011 0.10818993
0.070339195 -0.09032765 0.10845999
0.070953555 -0.09047547 0.10859503
0.071566984 -0.090623289 0.10873005
0.072153986 -0.090844989 0.1089326
0.072765291 -0.090992808 0.10906763
0.07337568 -0.091140628 0.10920265
0.069277935 -0.089986309 0.10724568
0.069920376 -0.09006004 0.10731336
0.070512749 -0.090281278 0.10751642
0.071153782 -0.090355009 0.10758407
0.071718559 -0.090649977 0.10785481
0.072357953 -0.090723708 0.10792249
0.072945409 -0.090944946 0.10812555
0.073583394 -0.091018677 0.1081932
0.074220911 -0.091092438 0.1082609
0.068230227 -0.089575052 0.10595991
0.068851843 -0.089722201 0.10609561
0.069423892 -0.090016484 0.10636698
0.070067726 -0.090090081 0.10643482
0.070711099 -0.090163648 0.10650267
0.071278915 -0.090457946 0.10677405
0.071895391 -0.090605095 0.10690975
0.072536424 -0.090678662 0.10697758
0.07317698 -0.090752259 0.10704544
0.073817074 -0.090825826 0.10711327
0.067773022 -0.089387983 0.10487418
0.06834951 -0.08968161 0.1051462
0.068996392 -0.089755028 0.10521422
0.069569834 -0.090048671 0.10548629
0.070215084 -0.090122074 0.10555428
0.070835069 -0.09026891 0.1056903
0.071479142 -0.090342298 0.10575831
0.072072223 -0.090562537 0.10596237
0.072714895 -0.09063594 0.10603037
0.073382825 -0.09063594 0.10603037
0.074024789 -0.090709358 0.1060984
0.067891143 -0.089496881 0.10405815
0.068468794 -0.089789852 0.10433087
0.069092758 -0.089936346 0.10446723
0.06971579 -0.090082839 0.10460359
0.070362441 -0.090156063 0.10467175
0.071008623 -0.090229318 0.10473993
0.071654335 -0.090302557 0.10480811
0.072249055 -0.090522304 0.10501266
0.072893374 -0.090595543 0.10508083
0.073537201 -0.090668797 0.10514902
0.067985624 -0.089680508 0.10330886
0.068588078 -0.089899749 0.10351388
0.069237307 -0.089972809 0.1035822
0.069837414 -0.09019205 0.10378726
0.070509791 -0.09019205 0.10378726
0.071157381 -0.090265125 0.10385559
0.071804494 -0.090338215 0.10392395
0.072451152 -0.090411291 0.10399228
0.073071845 -0.090557456 0.10412897
0.073743045 -0.090557456 0.10412897
0.074388295 -0.090630502 0.10419729
0.06808012 -0.089865461 0.10255823
0.068755075 -0.089865461 0.10255823
0.069381848 -0.090011299 0.10269523
0.070007689 -0.090157107 0.10283226
0.070657149 -0.090230018 0.10290076
0.071330935 -0.090230018 0.10290076
0.071979687 -0.090302944 0.10296927
0.072602727 -0.090448752 0.10310628
0.073275812 -0.090448752 0.10310628
0.07394889 -0.090448752 0.10310628
0.067545488 -0.089906231 0.10166889
0.068198226 -0.089979008 0.10173757
0.068850502 -0.090051726 0.10180625
0.069502302 -0.090124488 0.10187493
0.07012932 -0.090269968 0.10201228
0.070853621 -0.090124488 0.10187493
0.071479701 -0.090269968 0.10201228
0.072154887 -0.090269968 0.10201228
0.072804816 -0.09034273 0.10208096
0.073454283 -0.090415463 0.10214961
0.074129 -0.090415463 0.10214961
0.06831634 -0.090094179 0.1009153
0.068969786 -0.090166762 0.10098413
0.06964685 -0.090166762 0.10098413
0.070323914 -0.090166762 0.10098413
0.070951864 -0.09031193 0.10112181
0.071603663 -0.090384498 0.10119063
0.072280027 -0.090384498 0.10119063
0.072956391 -0.090384498 0.10119063
0.073607258 -0.090457097 0.10125948
0.074309118 -0.090384498 0.10119063
0.06777937 -0.090138614 0.10002233
0.068434462 -0.090211019 0.10009132
0.06908907 -0.090283453 0.10016035
0.069767304 -0.090283453 0.10016035
0.070445538 -0.090283453 0.10016035
0.071123779 -0.090283453 0.10016035
0.071727633 -0.090500683 0.10036735
0.072405167 -0.090500683 0.10036735
0.0730827 -0.090500683 0.10036735
0.073734738 -0.090573102 0.10043637
0.074437767 -0.090500683 0.10036735
0.067193285 -0.090329513 0.099265724
0.067872927 -0.090329513 0.099265724
0.068505324 -0.090474024 0.099404067
0.069184497 -0.090474024 0.099404067
0.06986367 -0.090474024 0.099404067
0.070542842 -0.090474024 0.099404067
0.071197458 -0.090546265 0.099473238
0.071851596 -0.090618521 0.099542424
0.072530299 -0.090618521 0.099542424
0.073183753 -0.090690777 0.099611565
0.073862225 -0.090690777 0.099611565
0.07454069 -0.090690777 0.099611565
0.067919701 -0.090665936 0.098646462
0.068576187 -0.090738028 0.098715812
0.06925606 -0.090738028 0.098715812
0.069960035 -0.090665936 0.098646462
0.070640147 -0.090665936 0.098646462
0.071295694 -0.090738028 0.098715812
0.071950771 -0.09081009 0.098785147
0.072655439 -0.090738028 0.098715812
0.073310055 -0.09081009 0.098785147
0.073989704 -0.09081009 0.098785147
0.074669339 -0.09081009 0.098785147
0.067355365 -0.090787247 0.097818047
0.068013258 -0.09085916 0.097887546
0.068717927 -0.090787247 0.097818047
0.069375351 -0.09085916 0.097887546
0.070080489 -0.090787247 0.097818047
0.070737444 -0.09085916 0.097887546
0.071418494 -0.09085916 0.097887546
0.072074741 -0.090931088 0.09795706
0.072755553 -0.090931088 0.09795706
0.073436365 -0.090931088 0.09795706
0.074117184 -0.090931088 0.09795706
0.074797988 -0.090931088 0.09795706
0.067471132 -0.090910226 0.096987978
0.068153583 -0.090910226 0.096987978
0.068812415 -0.090981975 0.097057641
0.069494635 -0.090981975 0.097057641
0.07015276 -0.091053739 0.097127318
0.070859075 -0.090981975 0.097057641
0.071541287 -0.090981975 0.097057641
0.072198704 -0.091053739 0.097127318
0.072880685 -0.091053739 0.097127318
0.073562674 -0.091053739 0.097127318
0.074193664 -0.091197252 0.097266644
0.074875176 -0.091197252 0.097266644
0.067610063 -0.090963259 0.096086398
0.068293914 -0.090963259 0.096086398
0.068954147 -0.091034859 0.096156254
0.069637768 -0.091034859 0.096156254
0.070321389 -0.091034859 0.096156254
0.071005017 -0.091034859 0.096156254
0.07166408 -0.09110643 0.096226066
0.072322682 -0.091178015 0.096295893
0.073005833 -0.091178015 0.096295893
0.073688991 -0.091178015 0.096295893
0.07437215 -0.091178015 0.096295893
0.06772583 -0.091089696 0.095252857
0.068410859 -0.091089696 0.095252857
0.069072269 -0.091161117 0.095322847
0.069780916 -0.091089696 0.095252857
0.070465937 -0.091089696 0.095252857
0.071126647 -0.091161117 0.095322847
0.07178688 -0.091232553 0.095392853
0.072471432 -0.091232553 0.095392853
0.073155992 -0.091232553 0.095392853
0.073840559 -0.091232553 0.095392853
0.074525118 -0.091232553 0.095392853
0.067841597 -0.091217816 0.094417647
0.068527795 -0.091217816 0.094417647
0.069214001 -0.091217816 0.094417647
0.069900192 -0.091217816 0.094417647
0.070634574 -0.091075301 0.094277307
0.071272597 -0.091217816 0.094417647
0.071934238 -0.091289058 0.094487816
0.072620198 -0.091289058 0.094487816
0.073306166 -0.091289058 0.094487816
0.073992133 -0.091289058 0.094487816
0.067934215 -0.091418669 0.093651101
0.06864474 -0.091347545 0.093580768
0.069379352 -0.091205388 0.09344013
0.070091054 -0.091134295 0.093369782
0.070779122 -0.091134295 0.093369782
0.071467198 -0.091134295 0.093369782
0.072081596 -0.091347545 0.093580768
0.07281854 -0.091205388 0.09344013
0.073506378 -0.091205388 0.09344013
0.074194223 -0.091205388 0.09344013
0.068073146 -0.091478974 0.092742249
0.068831846 -0.091266215 0.092530772
0.069544718 -0.091195285 0.092460245
0.070258051 -0.091124356 0.092389777
0.070947759 -0.091124356 0.092389777
0.071637474 -0.091124356 0.092389777
0.072302625 -0.091195285 0.092460245
0.072992101 -0.091195285 0.092460245
0.073681578 -0.091195285 0.092460245
0.074371062 -0.091195285 0.092460245
0.068281531 -0.091329008 0.091619417
0.068995565 -0.091258273 0.091548771
0.069780938 -0.09097521 0.091266125
0.070448905 -0.091045976 0.091336772
0.071164578 -0.09097521 0.091266125
0.071856402 -0.09097521 0.091266125
0.072523661 -0.091045976 0.091336772
0.073215246 -0.091045976 0.091336772
0.073906831 -0.091045976 0.091336772
0.069182672 -0.091182038 0.090493605
0.069946297 -0.090970248 0.090281144
0.070663616 -0.090899646 0.090210304
0.07135731 -0.090899646 0.090210304
0.072026677 -0.090970248 0.090281144
0.072744697 -0.090899646 0.090210304
0.073438391 -0.090899646 0.090210304
0.074132077 -0.090899646 0.090210304
0.069346391 -0.091178879 0.089506805
0.070088036 -0.091038018 0.089364842
0.070806749 -0.090967596 0.089293852
0.071501851 -0.090967596 0.089293852
0.072172627 -0.091038018 0.089364842
0.072892047 -0.090967596 0.089293852
0.073587142 -0.090967596 0.089293852
0.074257217 -0.091038018 0.089364842
0.06951011 -0.091178045 0.088517696
0.070206143 -0.091178045 0.088517696
0.07102146 -0.090826735 0.088161916
0.071694583 -0.090896994 0.088233069
0.072391555 -0.090896994 0.088233069
0.073088527 -0.090896994 0.088233069
0.073760696 -0.090967268 0.088304237
0.070678599 -0.090268269 0.086599052
0.071307741 -0.090478584 0.086813033
0.071983665 -0.090548664 0.08688435
0.072659135 -0.090618744 0.086955667
0.073309556 -0.09075895 0.087098315
0.074008636 -0.09075895 0.087098315
0.070962064 -0.089924589 0.085245684
0.07159403 -0.090134367 0.085460156
0.072200485 -0.090414107 0.085746124
0.072829403 -0.090623885 0.085960582
0.07348147 -0.090763748 0.086103573
0.071174666 -0.089794159 0.084103331
0.07176102 -0.09014298 0.0844616
0.072369121 -0.090422049 0.084748223
0.072999679 -0.090631336 0.084963188
0.070203327 -0.088970691 0.082239762
0.070819855 -0.089249104 0.082527041
0.071458139 -0.089457914 0.082742527
0.072095014 -0.089666709 0.082957983
0.072658211 -0.090084314 0.08338891
0 0 0 1 0 0 0 1 0 0 0 1 0 0 0 0 0 511 1 0 0
